<svg xmlns="http://www.w3.org/2000/svg" viewBox="0 0 1200 1600" role="img" aria-labelledby="title desc">
  <title id="title">Basketball drive placeholder artwork</title>
  <desc id="desc">Abstract basketball image with court lines and a player silhouette in motion.</desc>
  <defs>
    <linearGradient id="bg" x1="0" x2="1" y1="0" y2="1">
      <stop offset="0%" stop-color="#f1e4cf"/>
      <stop offset="42%" stop-color="#bf8f60"/>
      <stop offset="100%" stop-color="#3b2c25"/>
    </linearGradient>
  </defs>
  <rect width="1200" height="1600" fill="url(#bg)"/>
  <rect y="980" width="1200" height="620" fill="#d8b38a" fill-opacity="0.45"/>
  <circle cx="880" cy="210" r="220" fill="#fbf3df" fill-opacity="0.5"/>
  <path d="M210 1060h780M330 900v700M870 900v700" stroke="#f7edd8" stroke-opacity="0.36" stroke-width="10"/>
  <path d="M420 910c60-220 320-220 380 0" fill="none" stroke="#f5ecd7" stroke-opacity="0.32" stroke-width="12"/>
  <circle cx="628" cy="568" r="76" fill="#2f241f"/>
  <path d="M628 646l-70 214 74 102M690 664l118 210M566 772h154M604 852l-76 258M690 860l112 254" fill="none" stroke="#312621" stroke-width="34" stroke-linecap="round" stroke-linejoin="round"/>
  <circle cx="846" cy="520" r="78" fill="#d46a2e"/>
  <path d="M772 488c44 18 88 18 144 0M774 552c48-18 90-18 142 0M846 442v156" stroke="#7d3514" stroke-width="12" stroke-linecap="round"/>
</svg>
