<svg xmlns="http://www.w3.org/2000/svg" viewBox="0 0 1600 1100" role="img" aria-labelledby="title desc">
  <title id="title">Soccer breakaway placeholder artwork</title>
  <desc id="desc">Abstract soccer field scene with a runner breaking into open space.</desc>
  <defs>
    <linearGradient id="sky" x1="0" x2="1" y1="0" y2="1">
      <stop offset="0%" stop-color="#dbe7e5"/>
      <stop offset="50%" stop-color="#7a9a86"/>
      <stop offset="100%" stop-color="#2f4738"/>
    </linearGradient>
  </defs>
  <rect width="1600" height="1100" fill="url(#sky)"/>
  <rect y="670" width="1600" height="430" fill="#3a664e"/>
  <rect y="770" width="1600" height="330" fill="#2d563f"/>
  <circle cx="1270" cy="185" r="210" fill="#f4f0df" fill-opacity="0.48"/>
  <path d="M0 802h1600M120 902h1360" stroke="#edf3e5" stroke-opacity="0.35" stroke-width="8"/>
  <path d="M1170 742c0 98-88 176-198 176H728" fill="none" stroke="#eef2e5" stroke-opacity="0.42" stroke-width="10"/>
  <path d="M710 720c120 36 210 26 320-28" fill="none" stroke="#efeede" stroke-opacity="0.3" stroke-width="18" stroke-linecap="round"/>
  <circle cx="620" cy="582" r="54" fill="#152319"/>
  <path d="M618 640l-54 138 48 60M654 650l102 142M562 748h144M592 836l-98 186M682 834l120 210" fill="none" stroke="#17261b" stroke-width="30" stroke-linecap="round" stroke-linejoin="round"/>
  <circle cx="900" cy="844" r="32" fill="#f6f5ee"/>
  <path d="M882 829l20 15-7 26-25 6-18-18 6-23z" fill="#161d18"/>
</svg>
