<svg xmlns="http://www.w3.org/2000/svg" viewBox="0 0 1600 1100" role="img" aria-labelledby="title desc">
  <title id="title">Swimming split placeholder artwork</title>
  <desc id="desc">Abstract pool surface with reflected light and a swimmer cutting across the frame.</desc>
  <defs>
    <linearGradient id="water" x1="0" x2="1" y1="0" y2="1">
      <stop offset="0%" stop-color="#dce8ed"/>
      <stop offset="40%" stop-color="#7299ab"/>
      <stop offset="100%" stop-color="#22495b"/>
    </linearGradient>
  </defs>
  <rect width="1600" height="1100" fill="url(#water)"/>
  <circle cx="1180" cy="180" r="250" fill="#fcf9eb" fill-opacity="0.38"/>
  <path d="M0 314c120 26 232 26 352 0 120-26 232-26 352 0s232 26 352 0 232-26 352 0" fill="none" stroke="#eef7f8" stroke-opacity="0.34" stroke-width="12"/>
  <path d="M0 520c120 26 232 26 352 0 120-26 232-26 352 0s232 26 352 0 232-26 352 0" fill="none" stroke="#eef7f8" stroke-opacity="0.28" stroke-width="12"/>
  <path d="M0 742c120 26 232 26 352 0 120-26 232-26 352 0s232 26 352 0 232-26 352 0" fill="none" stroke="#eef7f8" stroke-opacity="0.24" stroke-width="12"/>
  <circle cx="784" cy="554" r="48" fill="#f8f4ea"/>
  <path d="M736 570c84-26 166-26 248 0M772 604l-182 114M890 604l176 90M712 720c156 18 296 22 448-46" fill="none" stroke="#f6f4ec" stroke-opacity="0.7" stroke-width="22" stroke-linecap="round"/>
</svg>
