<svg xmlns="http://www.w3.org/2000/svg" viewBox="0 0 1200 1600" role="img" aria-labelledby="title desc">
  <title id="title">Track sprint placeholder artwork</title>
  <desc id="desc">Abstract running track with lanes and an athlete exploding from the blocks.</desc>
  <defs>
    <linearGradient id="track" x1="0" x2="1" y1="0" y2="1">
      <stop offset="0%" stop-color="#f7e8d8"/>
      <stop offset="46%" stop-color="#d08a61"/>
      <stop offset="100%" stop-color="#6d3e2d"/>
    </linearGradient>
  </defs>
  <rect width="1200" height="1600" fill="url(#track)"/>
  <circle cx="310" cy="230" r="240" fill="#fbf6ed" fill-opacity="0.5"/>
  <path d="M180 0c200 300 210 704 4 1600M390 0c200 300 210 704 4 1600M600 0c200 300 210 704 4 1600M810 0c200 300 210 704 4 1600" stroke="#f8efe2" stroke-opacity="0.4" stroke-width="10"/>
  <circle cx="640" cy="770" r="68" fill="#2f221d"/>
  <path d="M642 842l-116 156 64 88M684 854l164 126M540 914h178M578 1082l-126 246M740 986l164 238" fill="none" stroke="#342621" stroke-width="34" stroke-linecap="round" stroke-linejoin="round"/>
  <rect x="410" y="1066" width="90" height="34" rx="14" fill="#dfd7cb"/>
  <rect x="540" y="1008" width="90" height="34" rx="14" fill="#dfd7cb"/>
</svg>
